<svg id="Calque_1" data-name="Calque 1" xmlns="http://www.w3.org/2000/svg" viewBox="0 0 1749 1749"><defs><style>.cls-1{font-size:116px;}.cls-1,.cls-2{font-family:MyriadPro-Bold, Myriad Pro;font-weight:700;}.cls-2{font-size:112px;}.cls-3{fill:none;stroke:#000;stroke-miterlimit:10;stroke-width:35px;}</style></defs><text class="cls-1" transform="translate(322.23 411.82) rotate(-46.64)">E</text><text class="cls-1" transform="translate(363.55 368.22) rotate(-42.34)">c</text><text class="cls-1" transform="translate(399.93 334.55) rotate(-37.9)">o</text><text class="cls-1" transform="translate(452.07 294.64) rotate(-34.14)">l</text><text class="cls-1" transform="translate(477.22 276.99) rotate(-30.58)">e</text><text class="cls-1" transform="translate(529.25 246.83) rotate(-27.34)"> </text><text class="cls-1" transform="translate(544.85 237.75) rotate(-23.93)">V</text><text class="cls-1" transform="translate(606.26 210.33) rotate(-18.89)">o</text><text class="cls-1" transform="translate(668.67 189.64) rotate(-15.42)"> </text><text class="cls-1" transform="translate(685.8 183.97) rotate(-12)">V</text><text class="cls-1" transform="translate(753.76 170.08) rotate(-8.2)">i</text><text class="cls-1" transform="matrix(1, -0.08, 0.08, 1, 784, 165.23)">e</text><text class="cls-1" transform="translate(843.85 160.72) rotate(-0.93)">t</text><text class="cls-1" transform="translate(884.94 159.61) rotate(3.43)">n</text><text class="cls-1" transform="translate(951.15 163.65) rotate(8.35)">a</text><text class="cls-1" transform="translate(1010 171.13) rotate(14.53)">m</text><text class="cls-1" transform="translate(1104.61 197.22) rotate(19.28)"> </text><text class="cls-1" transform="translate(1125.83 203.67) rotate(23.11)">A</text><text class="cls-1" transform="matrix(0.88, 0.47, -0.47, 0.88, 1194.12, 233.24)">z</text><text class="cls-1" transform="matrix(0.84, 0.54, -0.54, 0.84, 1240.91, 258.03)">a</text><text class="cls-1" transform="matrix(0.8, 0.6, -0.6, 0.8, 1291.26, 290.24)">z</text><text class="cls-1" transform="translate(1333.72 321.76) rotate(41.6)">g</text><text class="cls-1" transform="translate(1383.2 365.79) rotate(46.5)">a</text><text class="cls-2" transform="translate(269.26 1365.09) rotate(49.62)">S</text><text class="cls-2" transform="matrix(0.72, 0.69, -0.69, 0.72, 317.97, 1421.45)">o</text><text class="cls-2" transform="translate(374.59 1475.12) rotate(38.13)">n</text><text class="cls-2" transform="matrix(0.83, 0.56, -0.56, 0.83, 436.37, 1522.06)"> </text><text class="cls-2" transform="translate(464.77 1541.41) rotate(30.11)">L</text><text class="cls-2" transform="translate(524.92 1575.83) rotate(24.65)">o</text><text class="cls-2" transform="translate(596.13 1607.79) rotate(18.76)">n</text><text class="cls-2" transform="translate(671.25 1632.57) rotate(12.83)">g</text><text class="cls-2" transform="matrix(0.99, 0.15, -0.15, 0.99, 747.1, 1648.57)"> </text><text class="cls-2" transform="translate(781.72 1654.51) rotate(3.88)">Q</text><text class="cls-2" transform="matrix(1, -0.04, 0.04, 1, 875.98, 1659.68)">u</text><text class="cls-2" transform="translate(954.31 1655.47) rotate(-8.07)">y</text><text class="cls-2" transform="matrix(0.97, -0.23, 0.23, 0.97, 1023.34, 1645.18)">e</text><text class="cls-2" transform="translate(1093.68 1628.03) rotate(-18.99)">n</text><text class="cls-2" transform="translate(1166.67 1601.6) rotate(-23.21)"> </text><text class="cls-2" transform="translate(1194.27 1590.19) rotate(-26.89)">T</text><text class="cls-2" transform="translate(1259.37 1556.64) rotate(-32.52)">h</text><text class="cls-2" transform="translate(1325.66 1513.55) rotate(-38.38)">u</text><text class="cls-2" transform="translate(1386.66 1464.23) rotate(-43.96)">a</text><text class="cls-2" transform="translate(1436.86 1414.68) rotate(-48.52)">t</text><circle class="cls-3" cx="874.5" cy="874.5" r="857"/><path d="M944.6,427.89c15.63,27.89,10.47,56.77,29,84.14,7.06-35.2,8.31-65.2,8.72-95.28.11-8-3.19-16.53-11.15-15.7-23.06,2.39-29.82-13.35-37.32-29.52-3.34-7.17-6.14-17.83-16.53-14.37-9.22,3.07-7.07,13.76-7.29,21.69-2.5,89.44-4.76,178.89-7.32,268.32-.28,10,2.69,21.67-6.09,29.19-8.54,7.32-19.73,4.94-29.56,2.43-10.86-2.77-8.47-12.75-8.32-20.58.9-46.28,2.22-92.54,3.06-138.82.13-7.57,4.47-19-6.6-20.77-8.85-1.41-13.84,8.46-15.63,16.47-8.78,39.07-16,78.5-25.64,117.36-3.69,14.91-.64,42.52-17.5,41-20.69-1.84-7.41-27.23-9.3-42-12.79-100.24,14.3-190.11,69.44-273.85,23-35,39.9-74,59.1-111.46,11.12-21.67,24-25.88,43-8.19,24.78,23.14,50.33,45.48,76,67.63,12.81,11.05,17.4,24.36,16.82,40.91-4.24,120.24-8.76,240.48-11.7,360.75-.69,28.27-18.06,24.83-35.44,24.13-18.13-.74-41.45,7.48-41-25.41.41-26.6.94-53.93-22.56-73.89-3.39-2.87-5.24-9.34-5.25-14.15q-.29-86.35.55-172.72C936.18,440.87,940.22,436.57,944.6,427.89Z"/><path d="M1207.65,1423.29c-35,9.8-65.82.78-96.42,2.32-29.54,1.48-57.18,11.4-86.25,17.11,38.85-27.47,79-51.86,114.71-82.64,90.67-78.15,158-172.2,197.71-285.6,7.27-20.79,12.86-37.64-20.22-38-14.46-.15-25.92-15.81-44.57-8.48-8.15,3.2-16-10.52-17-21.83-.95-11,4.15-16.56,15-19.41a463.23,463.23,0,0,0,46.81-15.41c10-3.82,24.63-6.25,21.07-21.43-3.2-13.67-15.69-17.88-29.15-17.74-8.09.09-16.78,2-24.11-.27-8.78-2.78-5.72-12.06-4.77-18.87,1.46-10.42,6.87-17,18.6-15.91,36.11,3.27,68.68-9,103.65-25.52-10.27,79.62-3.84,149.87,85.29,181.7-9.19,21-30.91,28.14-51.5,36.72-13.25,5.52-27.65,9.14-39.59,16.68-15.41,9.73-22.2,25-12.08,42.5,9.57,16.59,23.33,12.59,37.47,5.69,5.11-2.49,9.75-8,16.7-5.33-8,36-28,52.42-63.32,51.81-6.16-.11-12.3-1-18.44-1.59-15.46-1.4-28.64,2.21-36.84,16.76-3.28,5.82-4.33,12,.22,17.26,10.93,12.68,24.57,12.83,39.38,7.91,3.5-1.17,7.72-.17,13.48-.17-14.4,29.79-40.82,37.46-67.88,44.1-5,1.22-10,2.12-15.09,3-19.29,3.29-44.57,4.56-45.11,28.5-.62,27.67,26.67,20.7,47.35,22.6-17.78,29.21-43.86,34.56-72.08,35.89-12.83.61-28-3.75-34.45,13.06C1179.7,1405.7,1196.18,1411.09,1207.65,1423.29Z"/><path d="M762.33,604.58c0,27.77,1,55.58-.28,83.29-1.14,25.74-25.28,41.6-47,29.15-28.76-16.51-43.91-4.89-56,20.07a11.32,11.32,0,0,1-1.49,2.69c-10.18,11.32-8.51,39.53-27.43,33.68-12.2-3.78,2.71-26.91,3.19-41.65,1.13-34.53,29-52.73,49.33-74.42,18.86-20.1,20-44,23.43-68.16.73-5.15-.83-10.71-7-12-5.92-1.26-9.31,2.94-12,7.52-31.39,54.19-75,102.79-77,170.38-.5,17.11-9.63,28.35-26.45,33.65-16.63,5.24-24-8.35-34.18-15.83-11.2-8.21-9.3-18.88-4.88-30.39,34.91-91,69.91-182,103.94-273.37,6.73-18.08,13.94-20.77,31.48-12.32,86,41.45,86.19,41,85,135.39-.06,4.12,0,8.24,0,12.35Z"/><path d="M417.79,1068.22c6-10.72,9.27-21.34,16.27-28,21.18-20.29,35.17-39.9,18.55-71.2-7.58-14.29,4.66-29.1,16.36-43.3-28,0-44.33-10.31-41.93-39.15,1.75-21,15.53-25.62,33.62-28.45,18.62-2.92,28.75,5.08,30.86,21.15,3.21,24.36,20.09,47.49,6.72,73.74-3.93,7.71-.73,17.52,5.6,22.76,22.5,18.65,16.56,38.36,6.35,60.73-5.79,12.69-6.18,27.84-8.94,41.9-1.56,8-.12,19.55-4.94,23.5-39.5,32.34-25.92,78.56-32.72,119.29-2,11.75,2.14,26.2-16.75,27-16.61.68-31.17-6.34-30.48-23.13,1.31-32.32-16.24-43.11-43.3-51.64-24.25-7.64-35.46-29.92-41-54-6.16-26.63-4.5-53.37,3.09-79.32,3.35-11.44,10.14-20.65-10.22-19-5.7.47-12.81-8.8-10.87-13,13.33-29-25.34-38.62-22.38-62.13,1.58-12.59,17.51-19.75,25.61-18.42,15.89,2.62,27.36,16.65,33.64,31.73C367.1,998.14,385.19,1035.64,417.79,1068.22Z"/><path d="M1296.82,952.15c-27.5,27.52-63.69,31.25-98.22,33.24-74.85,4.31-149.94,5.55-224.84-3.08-15.27-1.75-23.61-6.48-28.64-21.7-10-30.4-33.48-51-56.75-71.52-5.59-4.93-17.79-6.53-14.46-17.19,3.52-11.27,14.83-8.9,23.79-8.69A1496.09,1496.09,0,0,0,1110,853.37c88.29-10.51,176.65-20,259.76-56.28-22.77,35.64-59.09,48.89-96.09,60.06-80.33,24.25-164,25.89-246.58,35.39-5.1.59-10.28.78-15.31,1.74-7.92,1.5-19.09,2.05-20.71,10.14-2.39,11.94,10.85,13.65,18.51,16.72,88.85,35.6,181.44,40.62,275.53,32.49C1289,953.3,1292.92,952.65,1296.82,952.15Z"/><path d="M1065.68,693.18c26.25,21.25,29.64,41.17,10.74,71.26-21.84,34.76-55,55.85-93.06,66.82-79.93,23-159.78,22.13-238.13-8.77C726.87,815.25,705.42,809,711.68,783c5.73-23.83,25.92-30.47,48.05-29.7,41.8,1.47,80.18,17.25,118.12,32.38,41.57,16.57,82.79,14.79,123.79,2.77C1052.77,773.43,1070.82,744.63,1065.68,693.18Z"/><path d="M828.3,1214.43c14.93-3,19.18,9.45,23.72,21,23.64,60.33,66.13,105.34,115.88,144.9,8.9,7.08,30.4,11.56,19.86,27.47-9.29,14-24.12,29.57-46.27,23.17-22.86-6.6-43.5-18.12-63.39-30.82-41.17-26.29-77.38-57.61-100-102.12C764.17,1270.56,795.85,1216,828.3,1214.43Z"/><path d="M1145.12,573.16c-7.72,21.44-4.79,44.24-6.69,66.36-1.38,16.1-7.09,22.72-20.07,10.51-7.59-7.15-10.55-7.19-19.56-2.14-17.38,9.73-30.28,3.85-30.91-17.55-1-33.87-5.57-68.62.22-101.44,6-34.3,38.53-53.87,62.44-77,7.5-7.26,41.27,21.72,43.19,40.52,7,68.43,12.09,137,17.75,205.6.51,6.12.57,13.44-6.66,15.54-7.4,2.15-9.84-5.66-14-9.72-9-8.72-8.81-20-9.63-31.38-2.37-33.05-5.27-66.07-8-99.1Z"/><path d="M921.63,1178.9c39.94-.91,100.4,89.94,86.29,121.17-2.94,6.51-5.92,13-8.81,19.56-21.58,48.83-26.32,49.79-63.76,13a283.31,283.31,0,0,1-59.65-85.05c-19.31-42.26-16.21-49.5,27.61-63.92C911,1181.12,919,1179.57,921.63,1178.9Z"/><path d="M1240,1031.73c-85.07,70.64-211.69,86.39-297,38.91-12-6.7-32.44-11.12-28.43-29.56,4.39-20.22,41.76-36.89,58.93-30.15C1060.1,1045,1148,1062.46,1240,1031.73Z"/><path d="M609.86,1151.77c-4.44,8.59-10.08,6-14.61,6.72-6.3,1-13.48,2.31-12.17,10.38,1.07,6.62,7.63,9,14.2,9.32a117.43,117.43,0,0,0,36.6-3.48c18.21-4.9,36-4.72,50.76,9.76-3.81,11.8-27.94.54-21.44,18.73,4.25,11.9,17.68,11,29.58,8.1,26.39-6.52,51.94-5.06,78.39,10.2-13.37,11.41-35,3-40.54,20-5.76,17.72,21.32,17.42,21.79,36.69-100.1-25.27-188-69.91-263.72-140.31C527.83,1153.86,572,1125.68,609.86,1151.77Z"/><path d="M418.86,1037c-38.92-23.59-38.92-23.59-24.05-90.09-37.22,7.17-51.19-12.15-44.65-48.67,3.29-18.4-1.75-35,21.71-41.9,13.26-3.87,21.11-2.46,26.25,11.58,9.8,26.8,18.77,53.77,37.07,77a34,34,0,0,1,1,40.83C425.47,1000.91,419,1017.26,418.86,1037Z"/><path d="M1002.71,1115.43c-13.57,17.9-29.64,18.16-44,19.37-38.68,3.25-75.37-4.71-109.22-24.28-8.18-4.73-17.28-10.65-18-19.76-.92-11.59,12.37-11.35,19.68-15.72,7-4.17,15.79-5.48,22.21-10.21C888.1,1054,897.48,1057,909,1071,931.86,1098.84,964.83,1110,1002.71,1115.43Z"/><path d="M1006.78,846.61c45.16-44.82,118.07-41.78,135.4-109.76,25.3,18.84,17,45.63,13.92,71.44-2.81,23.67-20.88,25-38.44,26.87C1083.12,838.91,1048.53,842.32,1006.78,846.61Z"/><path d="M1034.36,1265.85c-7.3-.17-10.52-6.06-13.85-10.87-12.78-18.5-25.21-37.25-37.5-56.08-7.17-11-13.09-22.22,4.53-29.56,16-6.65,33.55-24.7,48.13-1.54,11.89,18.87,21.36,39.37,33.89,58.12C1076,1235.59,1048.53,1266.09,1034.36,1265.85Z"/><path d="M1093.05,1138.89c12.14,0,47,44.06,43.07,57.08-5.51,18.38-24.69,23.69-40.1,29.48-11.8,4.44-46.43-45.8-43.77-64.58C1055.72,1136.36,1079.27,1145.16,1093.05,1138.89Z"/><path d="M775.61,1320.86c-.51,2.63-.26,5.45-1.29,6.05-19.56,11.29-40.42,21.92-62.75,22-17.06.06-23.34-18-29.38-32.15-1.9-4.43-1-10.13-1-15.24,0-9.34-16.17-20.23-2.66-26.61,11.29-5.32,26.76-.73,36.52,10,8.68,9.58,15.51,16.32,30.9,10.5C768.82,1286.76,767.1,1311,775.61,1320.86Z"/><path d="M869,1161.74c-51.94,11.34-100.38-8.25-123.55-45.69-2.65-4.29-7-8-3.92-13.65,5.37-9.83,64.19-12.09,67.74-1.62C818.81,1129,840.46,1145,869,1161.74Z"/><path d="M882,1423.88c-48.35.11-92.14-11.17-128.08-44.16-14.41-13.23-14.89-23.35,7.93-27.58,14.8-2.75,28.83-3.47,40.53,6.74C828.06,1381.29,853.25,1404.26,882,1423.88Z"/><path d="M772.19,1177.36c-48.89,4-91.9-19.35-111.84-56.29-9-16.67-4.25-21.68,13.2-22.29,25-.87,48.52-2.94,55.33,30.82C733.12,1150.59,753.15,1161.19,772.19,1177.36Z"/><path d="M1069,1379.4c.89,9.51-3.11,15.87-9,19.84-17.69,11.94-36,23-54,34.49-6.6,4.23-14.39,6.67-19.17,0s3.53-10.36,7.94-13.69c15.22-11.47,14.29-22.79,1-35.07-6-5.56-12.16-11.93-5.49-20.88,5.65-7.58,14.11-9.28,21.86-5.38,11.62,5.83,23.62,5.49,35.78,5.25S1067.13,1369,1069,1379.4Z"/><path d="M1169.32,824.85c13.14-23.06,36.33-23.41,52.5-34.63,17.73-12.3,29.91-26.87,28.88-54.85,22.82,22.69,22.1,44.94,17,67.62-4.68,21-23.1,15.77-37.43,17.79C1211.34,823.47,1192.6,829.58,1169.32,824.85Z"/><path d="M1159.26,1108.26a42.34,42.34,0,0,1,32.55,39.84c.3,17.94-19.27,37.42-35,36-21.52-1.89-29.51-27.92-31.71-47C1122.73,1116.58,1146.88,1117.53,1159.26,1108.26Z"/><path d="M928.79,688.48c22.65,24.89,27.48,58,14.57,83.64-4.38,8.71-10.53,13.24-19.41,10.75-14.44-4-30.87-2.16-43.13-11.92-4.54-3.61.74-9.36,5.3-12C912.54,743.56,927.07,720.59,928.79,688.48Z"/><path d="M1070,1326.25c-.52,11.7-4,27.94-29.26,25-16.33-1.9-27.58-8.84-28.06-26.24-.42-15.72,28.52-51.83,39.54-51C1061.21,1274.7,1071.74,1300.6,1070,1326.25Z"/><path d="M296.54,769.15C338,766.81,369,785,381.4,814.76c3.61,8.63,6.84,17.87-2.94,24.62-9.15,6.32-19.24,14.55-30.21,12.5-13.22-2.47-5.78-15.42-6.2-23.35C340.57,800.72,320.41,786.88,296.54,769.15Z"/><path d="M1242.08,1074.33c-.91,13.4-4.94,26.16-13.1,36.66-7,9-12.36,27.19-25.26,21.72-11.45-4.85-19.83-19.91-22.89-34.21-3.14-14.7,9.32-18.55,18.85-23.89,8-4.45,16.46-8,24.17-12.8C1240,1051.76,1243.31,1059.38,1242.08,1074.33Z"/><path d="M1139.23,1281.44c-6.55,11.59-16.2,22-30.72,20.61-20.56-2-34.56-14.76-35.57-35.88-.7-14.59,13.28-19.9,24.75-24.13C1103.8,1239.79,1139.33,1274,1139.23,1281.44Z"/><path d="M397.05,776c41.57-5.54,69.8,11.88,77,43.75,3.2,14.19.1,25.41-15.11,28.37-13.46,2.63-19.26-3.83-21.06-18.69C434.66,803,431.28,800.68,397.05,776Z"/><path d="M641.28,1311.27c-16.63-.65-47.88-51.44-39.89-65.5,4-7,10.35-4.13,16.07-1.51,18.07,8.25,32.81,20.1,42,38.15C670,1303,664.25,1312.16,641.28,1311.27Z"/><path d="M1235.06,898c18.85.9,32.78-5.64,32.26,16-.57,24.19-14.9,29.53-33.92,27.85-10.48-.92-28.73,9.94-28.83-14.2C1204.46,900.63,1221,896.15,1235.06,898Z"/><path d="M406.78,1325.42c21-12.42,22.73-31,21.31-50.49-1-14.15,7.21-17,19.15-17.14,14-.16,16.79,7.35,16.77,19.49C464,1312.83,440.32,1335.37,406.78,1325.42Z"/><path d="M243.1,859.41c38.5-5.67,55.85,12.54,69,37.4,8,15-.58,23.37-13,28.36-17.48,7-18.08-5.81-18.55-17.58C279.68,885.78,261.29,876.09,243.1,859.41Z"/><path d="M425.81,710.31c20.16-6.41,37.42-1.85,39.88,20.3,2,18.13,10.81,23.69,25.93,28.38,20.26,6.3,30,20.58,23.14,42.52-6.35,20.22-4.31,38.09,13,52.73-27.21-6.25-30.42-27-23.14-47.11,8.86-24.42-.68-33.46-21.38-40.7-13.12-4.58-25.76-9.68-24.94-29.53C459.06,717.43,440.62,715.4,425.81,710.31Z"/><path d="M1174.08,1230.65c-2.86,11.7-4.67,30.44-22.75,31.58-14.1.89-30.78-14.31-28.53-25.88,3.19-16.35,22.08-26,39.25-28.54C1174.24,1206,1174.8,1217.93,1174.08,1230.65Z"/><path d="M543,1234c-.78-11.07-1.5-18.49,9.47-18.69s38.28,30.15,39.29,43.88c1.1,14.86-11.3,13.69-18.85,13.47C545.35,1271.85,548.87,1247.34,543,1234Z"/><path d="M1169.19,900.61c12.15-.16,24.32-2.9,23.89,13.31-.5,18.94-10.82,28.25-29.81,26.52-9.49-.86-22.91,2-21.69-14.31C1142.91,908.46,1150.5,896.49,1169.19,900.61Z"/><path d="M647.72,1152.78c-25-8.78-45.81-15.5-48.68-42-1.25-11.55,1-21.11,16.14-19,11.13,1.51,27.64,3.14,22.23,17.52C630.85,1126.7,641.82,1136.3,647.72,1152.78Z"/><path d="M1107.79,933.24c-18.68-6-54.37-1.69-53.13-17,1.72-21.27,34.19-5.76,52.26-12.67,8.84-3.38,23-5.51,22.66,10.62C1129.35,925.5,1124.07,937,1107.79,933.24Z"/><path d="M1135.48,1002.08c11.62,4.89,29.13-7.53,30.35,12.78,1.11,18.62-14.84,17-26.2,15-12.89-2.28-35.92,10.71-36.27-13.32C1103,993.79,1126.22,1009.42,1135.48,1002.08Z"/><path d="M1243.8,1215.39c-13.74-2.07-16.78-11.16-16.34-20.49.9-18.79,10.83-30.08,30.57-31.32,11.59-.73,10.12,7.7,10.19,14.5C1268.41,1196.62,1258.15,1208,1243.8,1215.39Z"/><path d="M1207.11,1266.44c-7.83-10.09-25.31-10.09-22.26-26.9,3-16.54,16.69-23.16,30.7-24.23,10.86-.82,15.25,10.93,12.45,19.93C1224.41,1246.75,1221.27,1260.2,1207.11,1266.44Z"/><path d="M1118.52,1334.72c-.86-19.29,9.27-32,26.47-35.62,9.41-2,10.83,10.12,10.87,18.07.09,19.38-12.62,29.91-29.19,33.35C1117.4,1352.45,1119,1341.21,1118.52,1334.72Z"/><path d="M652.86,1323.64c21.1,1,28.46,15.38,33.09,31.36,2.26,7.78-4.39,11.66-11.13,9.58-17.65-5.46-37.45-12.43-43-30.49C628.41,1322.8,647.08,1330.2,652.86,1323.64Z"/><path d="M614.87,1318.72c-14,5.94-23.93-3.73-34.37-8.71-8.77-4.19-20.24-7-22.65-18.79-.92-4.52,3.63-6.64,8-7.18,13.16-1.62,27.23-5.68,36.85,7.5C608.46,1299.43,614.6,1307.75,614.87,1318.72Z"/><path d="M1239.92,1009.19c-3.49,8.78-12.5,13.11-21.21,13.06-12.52-.08-25.17,12.39-36.84,1.66-5.12-4.71-4.34-15.83,2.51-18.67,15.87-6.6,33.17-8.49,50.44-6.37C1239,999.38,1241.07,1003.43,1239.92,1009.19Z"/><path d="M1223.18,1171.45c-6.8,16.55-13.11,32.51-30.68,37-9.89,2.55-16.25-7.53-13.75-15.31,5.13-15.94,18.51-27.32,32.39-35.08C1218.39,1154.05,1219.44,1166.58,1223.18,1171.45Z"/><path d="M1305.13,1048.71c11.94,4,17.83,12.66,15.39,23.53-3,13.41-5.69,29.36-24.2,30.54-6.86.43-12.44-5.67-8.73-12.2C1295.11,1077.31,1285,1056.36,1305.13,1048.71Z"/><path d="M1105.2,1342.57c-4.52,11.36,5.51,31.17-13.57,32.62-17.67,1.33-11.29-16.46-9.84-25.4,2-12.36-5.74-33.53,13.71-34.46C1110.65,1314.6,1103.73,1332.44,1105.2,1342.57Z"/><path d="M1261,1130.47c-.56,15.62-7.23,25.09-24.14,24.43-7.53-.29-16.7-2-12.83-11.36,5.51-13.36,11.33-29.9,28.08-31.74C1262.58,1110.65,1261.4,1122.47,1261,1130.47Z"/><path d="M570.62,1114.23c-10.7-8.83-14.49-20-14.72-32.37-.14-7.63-3.44-17.69,4.62-22.11,7.66-4.21,11.9,5.09,17.07,9.34,7.4,6.07,13.48,11.88,4.74,22.35C577.13,1097.67,574.63,1106.16,570.62,1114.23Z"/><path d="M1198.32,1281.33c-6,10.76-13.15,23.07-24.73,25.26-12.61,2.38-11.52-12-12.1-20.1-.82-11.29,5.91-20.51,17.24-21.68C1188.64,1263.78,1195.11,1271.29,1198.32,1281.33Z"/><path d="M1253.23,1074.19c2.61-9.84-3.19-26.5,16.55-25.93,12.43.36,10.71,10.6,9,18.46-2.69,12.35.36,31.2-15.51,33C1251.39,1101,1252.07,1085.54,1253.23,1074.19Z"/><path d="M1015,1007c25.89-7.57,44.81-1.58,63.49-2.32,5.65-.23,9.22,3.34,9,9.51-.22,7.78-4.92,10.28-11.93,9.91C1056.42,1023.1,1037.92,1019.5,1015,1007Z"/><path d="M533.14,1276.75c-10.76-6-24.68-9.74-28.82-23.53-2.43-8.09,4-13,12.35-12.78,16.71.35,20.86,13.42,24.78,26C543.26,1272.23,539.64,1275.69,533.14,1276.75Z"/><path d="M1284.75,1152.92c-12.43-1-11.27-8-11.06-13.69.43-11.39,1.85-22.79,16.09-25.24,7.21-1.24,13.54,3.46,11.19,9.8C1297,1134.58,1289.8,1144.19,1284.75,1152.92Z"/><path d="M507.23,1204c11.36-.7,21.35-.92,22.76,11.42,1.35,11.91-7.76,11.81-16.25,11.87-10.61.07-17.87-4.42-19.1-15.17C493.2,1199.47,503.12,1204.62,507.23,1204Z"/><path d="M746.57,1395.66c-20.5-10.61-36.14-11.2-47.07-25.44C724.4,1355.25,734,1369.3,746.57,1395.66Z"/><path d="M543.26,1000.72c-3.49-.47-9.21,2.45-9.42-3.63-.35-10.07,7.16-15.94,15.53-14.31,18.45,3.57,25.68-5.58,30.28-21,1.76,17.36,3.67,34.14-23,30.26-6.92-1-11.68,1.7-13.43,8.8C543.18,1000.73,543.26,1000.75,543.26,1000.72Z"/><path d="M490.89,1161.69c10.26,7,17.62,13.57,21.12,23.72C483.77,1192.23,482.9,1191.38,490.89,1161.69Z"/><path d="M481.65,1222.37c7.09.22,6.7,6.35,8.32,10.7,1.77,4.75-.13,7.5-5.29,7.71-6.7.27-8.72-4.52-8.9-9.66C475.65,1227.52,476,1222.76,481.65,1222.37Z"/><path d="M543.22,1000.79c-5.55,10,3.29,24.31-9.81,32.69-5.77-14.14,4.58-22.66,9.85-32.75Z"/><path d="M900.51,921.33c-3.47-3.78-7.43-7.09-11-10.78-52.09-53.77-128.62-54.64-190.66-87.21-14.19-7.45-28.94,2.08-31.59,22.7-3.22,25.1-23.54,32.31-46.63,18.51-10.27-6.14-14.89-16.7-22.09-25.28C588.2,827,574.77,820.83,561,831.86c-12.32,9.83-15.77,23.71-6,38.36,3.16,4.76,10,7.84,6.55,17-18.25.8-27.87,11.16-23.32,30.09,4.25,17.72,16.25,31.32,35.25,26,20.43-5.78,23.36,10.18,30.55,19.64,20.15-21.23,45.95-27.78,64.91-43.73.76-.65,3.8,1,5.52,2,18.18,10.46,37.75,14.18,58.62,16.27,19.14,1.92,21.1,19.82,22.29,35.54,1,13-1.31,25.52-14.89,30.92-15.63,6.22-24.61-4.52-33.38-15.27-3.92-4.8-2.7-15.1-10.79-13.88-13.7,10.66,11.77,36.25-15.06,37.09-38.76,1.21-31.69-31.36-33.09-56.89-4.71,1.82-7.92,2.24-10,4-19.67,16.28-21,50.43-57.12,52.53-11.61.67-10.86,22.35-2.87,34.81,7.45,11.64,18.62,18.12,32.09,22.18,33.31,10,67.08,8.87,100.86,5.39,62.85-6.46,123.75-20.63,177.81-54.93C930.57,992.4,934,957.75,900.51,921.33Zm-201.9-64.39c-8.08-.08-14.75-3.82-15.91-11.56-1.29-8.67,6.15-11.65,13.43-13.65,8.35,2.13,16.36,5.67,15.93,15.47C711.77,854,705.54,857,698.61,856.94Z"/></svg>